<svg width="72" height="67" viewBox="0 0 72 67" fill="none" xmlns="http://www.w3.org/2000/svg">
<path d="M66.2049 6.51936C64.4598 4.68829 62.3878 3.23576 60.1073 2.24474C57.8269 1.25373 55.3825 0.743652 52.9141 0.743652C50.4456 0.743652 48.0012 1.25373 45.7207 2.24474C43.4403 3.23576 41.3683 4.68829 39.6232 6.51936L36.0015 10.3177L32.3799 6.51936C28.8549 2.82246 24.0741 0.745569 19.089 0.745569C14.104 0.745569 9.32316 2.82246 5.79821 6.51936C2.27326 10.2163 0.292969 15.2303 0.292969 20.4585C0.292969 25.6867 2.27326 30.7008 5.79821 34.3977L36.0015 66.0744L66.2049 34.3977C67.9508 32.5675 69.3358 30.3944 70.2807 28.0027C71.2256 25.611 71.712 23.0474 71.712 20.4585C71.712 17.8696 71.2256 15.3061 70.2807 12.9143C69.3358 10.5226 67.9508 8.34957 66.2049 6.51936Z" fill="#FF788F"/>
</svg>
