<svg width="55" height="50" viewBox="0 0 55 50" fill="none" xmlns="http://www.w3.org/2000/svg">
<path d="M51.0592 0.0253906L54.1281 3.79072C49.6527 7.71696 46.2962 11.6432 44.0585 15.5694C41.8848 19.4313 40.7979 23.3576 40.7979 27.3482C40.7979 28.2493 40.7979 28.9251 40.7979 29.3756C40.8618 29.7619 40.9258 30.1802 40.9897 30.6308C41.1176 30.6308 41.2774 30.6308 41.4692 30.6308C43.2594 30.3733 44.5381 30.2446 45.3052 30.2446C48.0544 30.2446 50.2601 31.1135 51.9224 32.8514C53.6485 34.5892 54.5117 36.9063 54.5117 39.8027C54.5117 42.6991 53.6166 45.1127 51.8264 47.0437C50.0364 48.9103 47.7347 49.8436 44.9216 49.8436C41.4052 49.8436 38.4004 48.3954 35.9069 45.499C33.4136 42.5382 32.1668 38.9337 32.1668 34.6857C32.1668 28.4424 33.7652 22.3599 36.9619 16.4383C40.2225 10.4524 44.9216 4.98147 51.0592 0.0253906ZM18.7006 0.0253906L21.8653 3.79072C17.3261 7.71696 13.9375 11.6432 11.6999 15.5694C9.52612 19.4313 8.43925 23.3576 8.43925 27.3482C8.43925 28.2493 8.43925 28.9251 8.43925 29.3756C8.50315 29.7619 8.56714 30.1802 8.63104 30.6308C8.75894 30.6308 8.91878 30.6308 9.11058 30.6308C10.9007 30.3733 12.1793 30.2446 12.9466 30.2446C15.7597 30.2446 17.9973 31.1135 19.6596 32.8514C21.3859 34.5892 22.2489 36.9063 22.2489 39.8027C22.2489 42.6991 21.3219 45.1127 19.4678 47.0437C17.6776 48.9103 15.3761 49.8436 12.563 49.8436C9.11058 49.8436 6.13764 48.3954 3.64422 45.499C1.21474 42.5382 0 38.9337 0 34.6857C0 28.3779 1.59834 22.2634 4.79503 16.3418C7.99171 10.4203 12.6269 4.98147 18.7006 0.0253906Z" fill="#FFCE31"/>
</svg>
