<svg width="644" height="533" viewBox="0 0 644 533" fill="none" xmlns="http://www.w3.org/2000/svg">
<path fill-rule="evenodd" clip-rule="evenodd" d="M352.848 -285.383C452.103 -280.979 556.509 -246.532 617.112 -174.816C673.146 -108.506 635.496 -14.3494 651.501 68.0416C664.369 134.28 712.395 193.037 701.498 259.568C689.425 333.276 650.935 403.615 588.625 451.927C523.365 502.526 436.928 545.042 352.848 529.891C271.354 515.207 245.968 418.903 176.342 377.637C100.162 332.487 68.5933 346 17.0933 280.5C-17.0192 205.601 10.0499 140.083 32.4014 61.5934C57.1605 -25.3503 5.70161 -130.387 69.1868 -199.128C134.959 -270.345 250.783 -289.912 352.848 -285.383Z" fill="#8280F2"/>
</svg>
