<svg width="1462" height="311" viewBox="0 0 1462 311" fill="none" xmlns="http://www.w3.org/2000/svg">
<path fill-rule="evenodd" clip-rule="evenodd" d="M967.961 -507.383C1200.07 -502.979 1444.22 -468.532 1585.93 -396.816C1716.97 -330.506 1628.92 -236.349 1666.35 -153.958C1696.45 -87.7195 1808.75 -28.9633 1783.27 37.5681C1755.04 111.276 1665.03 181.615 1519.32 229.927C1366.71 280.527 1164.58 323.042 967.961 307.892C777.39 293.207 718.025 196.903 555.207 155.638C377.061 110.487 303.239 124 182.807 58.5001C103.036 -16.399 166.337 -81.9173 218.605 -160.407C276.503 -247.35 156.168 -352.387 304.626 -421.128C458.432 -492.345 729.283 -511.912 967.961 -507.383Z" fill="#FFCE31"/>
<path fill-rule="evenodd" clip-rule="evenodd" d="M436.961 -507.383C669.065 -502.979 913.218 -468.532 1054.93 -396.816C1185.97 -330.506 1097.92 -236.349 1135.35 -153.958C1165.45 -87.7195 1277.75 -28.9633 1252.27 37.5681C1224.04 111.276 1134.03 181.615 988.319 229.927C835.709 280.527 633.581 323.042 436.961 307.892C246.39 293.207 187.025 196.903 24.207 155.638C-153.939 110.487 -227.761 124 -348.193 58.5001C-427.964 -16.399 -364.663 -81.9173 -312.395 -160.407C-254.497 -247.35 -374.832 -352.387 -226.374 -421.128C-72.5678 -492.345 198.283 -511.912 436.961 -507.383Z" fill="#8280F2"/>
</svg>
